<svg width="23" height="14" viewBox="0 0 23 14" fill="none" xmlns="http://www.w3.org/2000/svg">
<path d="M0 13.7695V0H22.6792V13.7695H0ZM1.13395 12.6435H21.5452V1.12601H1.13395V12.6435ZM2.7215 6.90083C2.7215 6.16893 3.34518 5.49332 4.13895 5.49332C4.93272 5.49332 5.55639 6.1448 5.55639 6.90083C5.55639 7.65687 4.90032 8.30835 4.13895 8.30835C3.37757 8.30835 2.7215 7.68904 2.7215 6.90083ZM7.65421 6.90083C7.65421 4.87402 9.29845 3.2413 11.3396 3.2413C13.3807 3.2413 15.0249 4.90619 15.0249 6.90083C15.0249 8.89548 13.3483 10.5604 11.3396 10.5604C9.33085 10.5604 7.65421 8.92765 7.65421 6.90083ZM11.0561 9.54695L11.6231 9.32175V8.81505C12.1658 8.70245 12.6436 8.34051 12.6436 7.71317C12.6436 6.64346 10.6835 6.55498 10.6835 5.87938C10.6835 5.63005 10.967 5.4531 11.3072 5.4531C11.5907 5.4531 11.8499 5.54158 12.0199 5.65418L12.4168 5.26007C12.1333 5.09117 11.8499 4.9464 11.6231 4.92227V4.2145L11.0561 4.41557V4.92227C10.5458 5.03487 10.1489 5.34855 10.1489 5.91156C10.1489 7.06974 12.0767 6.98127 12.0767 7.74534C12.0767 8.02685 11.7041 8.28422 11.3072 8.28422C10.9994 8.28422 10.6268 8.17161 10.4324 8.00271L10.2056 8.50942C10.3433 8.56572 10.6349 8.79092 11.0561 8.84722V9.555V9.54695ZM17.1228 6.90083C17.1228 6.16893 17.7708 5.49332 18.5402 5.49332C19.3097 5.49332 19.9577 6.1448 19.9577 6.90083C19.9577 7.65687 19.3097 8.30835 18.5402 8.30835C17.7708 8.30835 17.1228 7.68904 17.1228 6.90083Z" fill="white"/>
</svg>
