<svg width="936" height="81" viewBox="0 0 936 81" fill="none" xmlns="http://www.w3.org/2000/svg">
<path d="M26.46 29.6379V42.9278C26.46 48.1537 25.27 50.3111 23.97 51.4422L22.89 59.7366H20.83L20.29 75.4143L26.04 78.4828V80.6402H15.09L14.11 59.967H12.27L11.51 80.6402H0.43V78.4828L6.29 75.4143L5.75 59.7366H3.58L2.6 51.4422C1.19 50.3111 0 48.1432 0 42.9278V29.6379C0 24.7576 2.17 20.8932 7.37 19.3013C6.29 18.7358 5.74 17.3743 5.74 15.5521C5.74 13.2795 6.39 11.5724 6.93 8.96472C8.01 3.96922 9.21 1.1311 13.22 1.1311C17.02 1.1311 18.43 3.96922 19.51 8.96472C19.94 10.8917 21.79 14.0754 21.79 15.5521C21.79 17.3743 20.71 18.7358 19.19 19.4165C24.4 21.0084 26.46 24.7576 26.46 29.6379Z" fill="white"/>
<path d="M68.7992 74.6183L75.5192 77.802V80.6401H62.9392L62.0692 53.9451H59.8992L59.0292 80.6401H46.4492V77.802L53.1692 74.6183L52.0892 51.2222C48.9392 50.4263 47.2092 48.2689 47.2092 44.7501V31.6905C47.2092 24.0769 49.1592 19.0814 57.0792 17.9503C55.3392 16.5888 54.3692 14.2011 54.3692 11.4782C54.3692 10.0015 53.6092 9.77109 53.6092 8.07451C53.6092 3.07901 56.3192 0.010498 60.7692 0.010498C63.1592 0.010498 64.8892 1.03683 65.8692 2.51348C67.6092 3.53981 68.3592 5.4668 68.3592 8.07451C68.3592 9.78157 67.5992 9.78157 67.5992 11.4782C67.5992 14.2011 66.6192 16.5888 64.8892 17.9503C72.8092 19.0814 74.7592 24.0873 74.7592 31.6905V44.7501C74.7592 48.049 73.0192 50.4263 69.8792 51.2222L68.7992 74.6183Z" fill="white"/>
<path d="M121.991 29.6379V42.9278C121.991 48.1537 120.801 50.3111 119.501 51.4422L118.421 59.7366H116.361L115.821 75.4143L121.571 78.4828V80.6402H110.621L109.641 59.967H107.801L107.041 80.6402H95.9808V78.4828L101.841 75.4143L101.301 59.7366H99.1308L98.1508 51.4422C96.7408 50.3111 95.5508 48.1432 95.5508 42.9278V29.6379C95.5508 24.7576 97.7208 20.8932 102.921 19.3013C101.841 18.7358 101.291 17.3743 101.291 15.5521C101.291 13.2795 101.941 11.5724 102.481 8.96472C103.561 3.96922 104.761 1.1311 108.771 1.1311C112.571 1.1311 113.981 3.96922 115.061 8.96472C115.491 10.8917 117.341 14.0754 117.341 15.5521C117.341 17.3743 116.261 18.7358 114.741 19.4165C119.951 21.0084 122.011 24.7576 122.011 29.6379H121.991Z" fill="white"/>
<path opacity="0.3" d="M217.51 29.6379V42.9278C217.51 48.1537 216.32 50.3111 215.02 51.4422L213.94 59.7366H211.88L211.34 75.4143L217.09 78.4828V80.6402H206.14L205.16 59.967H203.32L202.56 80.6402H191.5V78.4828L197.36 75.4143L196.82 59.7366H194.65L193.67 51.4422C192.26 50.3111 191.07 48.1432 191.07 42.9278V29.6379C191.07 24.7576 193.24 20.8932 198.44 19.3013C197.36 18.7358 196.81 17.3743 196.81 15.5521C196.81 13.2795 197.46 11.5724 198 8.96472C199.08 3.96922 200.28 1.1311 204.29 1.1311C208.09 1.1311 209.5 3.96922 210.58 8.96472C211.01 10.8917 212.86 14.0754 212.86 15.5521C212.86 17.3743 211.78 18.7358 210.26 19.4165C215.47 21.0084 217.53 24.7576 217.53 29.6379H217.51Z" fill="white"/>
<path opacity="0.3" d="M259.85 74.6183L266.57 77.802V80.6401H253.99L253.12 53.9451H250.95L250.08 80.6401H237.5V77.802L244.22 74.6183L243.14 51.2222C239.99 50.4263 238.26 48.2689 238.26 44.7501V31.6905C238.26 24.0769 240.21 19.0814 248.13 17.9503C246.39 16.5888 245.42 14.2011 245.42 11.4782C245.42 10.0015 244.66 9.77109 244.66 8.07451C244.66 3.07901 247.37 0.010498 251.82 0.010498C254.21 0.010498 255.94 1.03683 256.92 2.51348C258.66 3.53981 259.41 5.4668 259.41 8.07451C259.41 9.78157 258.65 9.78157 258.65 11.4782C258.65 14.2011 257.67 16.5888 255.94 17.9503C263.86 19.0814 265.81 24.0873 265.81 31.6905V44.7501C265.81 48.049 264.07 50.4263 260.93 51.2222L259.85 74.6183Z" fill="white"/>
<path opacity="0.3" d="M313.03 29.6379V42.9278C313.03 48.1537 311.84 50.3111 310.54 51.4422L309.46 59.7366H307.4L306.86 75.4143L312.61 78.4828V80.6402H301.66L300.68 59.967H298.84L298.08 80.6402H287.02V78.4828L292.88 75.4143L292.34 59.7366H290.17L289.19 51.4422C287.78 50.3111 286.59 48.1432 286.59 42.9278V29.6379C286.59 24.7576 288.76 20.8932 293.96 19.3013C292.88 18.7358 292.33 17.3743 292.33 15.5521C292.33 13.2795 292.98 11.5724 293.52 8.96472C294.6 3.96922 295.8 1.1311 299.81 1.1311C303.61 1.1311 305.02 3.96922 306.1 8.96472C306.53 10.8917 308.38 14.0754 308.38 15.5521C308.38 17.3743 307.3 18.7358 305.78 19.4165C310.99 21.0084 313.05 24.7576 313.05 29.6379H313.03Z" fill="white"/>
<path opacity="0.3" d="M355.37 74.6183L362.09 77.802V80.6401H349.51L348.64 53.9451H346.47L345.6 80.6401H333.02V77.802L339.74 74.6183L338.66 51.2222C335.51 50.4263 333.78 48.2689 333.78 44.7501V31.6905C333.78 24.0769 335.73 19.0814 343.65 17.9503C341.91 16.5888 340.94 14.2011 340.94 11.4782C340.94 10.0015 340.18 9.77109 340.18 8.07451C340.18 3.07901 342.89 0.010498 347.34 0.010498C349.73 0.010498 351.46 1.03683 352.44 2.51348C354.18 3.53981 354.93 5.4668 354.93 8.07451C354.93 9.78157 354.17 9.78157 354.17 11.4782C354.17 14.2011 353.19 16.5888 351.46 17.9503C359.38 19.0814 361.33 24.0873 361.33 31.6905V44.7501C361.33 48.049 359.59 50.4263 356.45 51.2222L355.37 74.6183Z" fill="white"/>
<path opacity="0.3" d="M408.559 29.6379V42.9278C408.559 48.1537 407.369 50.3111 406.069 51.4422L404.989 59.7366H402.929L402.389 75.4143L408.139 78.4828V80.6402H397.189L396.209 59.967H394.369L393.609 80.6402H382.549V78.4828L388.409 75.4143L387.869 59.7366H385.699L384.719 51.4422C383.309 50.3111 382.119 48.1432 382.119 42.9278V29.6379C382.119 24.7576 384.289 20.8932 389.489 19.3013C388.409 18.7358 387.859 17.3743 387.859 15.5521C387.859 13.2795 388.509 11.5724 389.049 8.96472C390.129 3.96922 391.329 1.1311 395.339 1.1311C399.139 1.1311 400.549 3.96922 401.629 8.96472C402.059 10.8917 403.909 14.0754 403.909 15.5521C403.909 17.3743 402.829 18.7358 401.309 19.4165C406.519 21.0084 408.579 24.7576 408.579 29.6379H408.559Z" fill="white"/>
<path opacity="0.3" d="M450.901 74.6183L457.621 77.802V80.6401H445.041L444.171 53.9451H442.001L441.131 80.6401H428.551V77.802L435.271 74.6183L434.191 51.2222C431.041 50.4263 429.311 48.2689 429.311 44.7501V31.6905C429.311 24.0769 431.261 19.0814 439.181 17.9503C437.441 16.5888 436.471 14.2011 436.471 11.4782C436.471 10.0015 435.711 9.77109 435.711 8.07451C435.711 3.07901 438.421 0.010498 442.871 0.010498C445.261 0.010498 446.991 1.03683 447.971 2.51348C449.711 3.53981 450.461 5.4668 450.461 8.07451C450.461 9.78157 449.701 9.78157 449.701 11.4782C449.701 14.2011 448.721 16.5888 446.991 17.9503C454.911 19.0814 456.861 24.0873 456.861 31.6905V44.7501C456.861 48.049 455.121 50.4263 451.981 51.2222L450.901 74.6183Z" fill="white"/>
<path opacity="0.3" d="M504.081 29.6379V42.9278C504.081 48.1537 502.891 50.3111 501.591 51.4422L500.511 59.7366H498.451L497.911 75.4143L503.661 78.4828V80.6402H492.711L491.731 59.967H489.891L489.131 80.6402H478.071V78.4828L483.931 75.4143L483.391 59.7366H481.221L480.241 51.4422C478.831 50.3111 477.641 48.1432 477.641 42.9278V29.6379C477.641 24.7576 479.811 20.8932 485.011 19.3013C483.931 18.7358 483.381 17.3743 483.381 15.5521C483.381 13.2795 484.031 11.5724 484.571 8.96472C485.651 3.96922 486.851 1.1311 490.861 1.1311C494.661 1.1311 496.071 3.96922 497.151 8.96472C497.581 10.8917 499.431 14.0754 499.431 15.5521C499.431 17.3743 498.351 18.7358 496.831 19.4165C502.041 21.0084 504.101 24.7576 504.101 29.6379H504.081Z" fill="white"/>
<path opacity="0.3" d="M546.42 74.6183L553.14 77.802V80.6401H540.56L539.69 53.9451H537.52L536.65 80.6401H524.07V77.802L530.79 74.6183L529.71 51.2222C526.56 50.4263 524.83 48.2689 524.83 44.7501V31.6905C524.83 24.0769 526.78 19.0814 534.7 17.9503C532.96 16.5888 531.99 14.2011 531.99 11.4782C531.99 10.0015 531.23 9.77109 531.23 8.07451C531.23 3.07901 533.94 0.010498 538.39 0.010498C540.78 0.010498 542.51 1.03683 543.49 2.51348C545.23 3.53981 545.98 5.4668 545.98 8.07451C545.98 9.78157 545.22 9.78157 545.22 11.4782C545.22 14.2011 544.24 16.5888 542.51 17.9503C550.43 19.0814 552.38 24.0873 552.38 31.6905V44.7501C552.38 48.049 550.64 50.4263 547.5 51.2222L546.42 74.6183Z" fill="white"/>
<path opacity="0.3" d="M599.61 29.6379V42.9278C599.61 48.1537 598.42 50.3111 597.12 51.4422L596.04 59.7366H593.98L593.44 75.4143L599.19 78.4828V80.6402H588.24L587.26 59.967H585.42L584.66 80.6402H573.6V78.4828L579.46 75.4143L578.92 59.7366H576.75L575.77 51.4422C574.36 50.3111 573.17 48.1432 573.17 42.9278V29.6379C573.17 24.7576 575.34 20.8932 580.54 19.3013C579.46 18.7358 578.91 17.3743 578.91 15.5521C578.91 13.2795 579.56 11.5724 580.1 8.96472C581.18 3.96922 582.38 1.1311 586.39 1.1311C590.19 1.1311 591.6 3.96922 592.68 8.96472C593.11 10.8917 594.96 14.0754 594.96 15.5521C594.96 17.3743 593.88 18.7358 592.36 19.4165C597.57 21.0084 599.63 24.7576 599.63 29.6379H599.61Z" fill="white"/>
<path opacity="0.3" d="M641.95 74.6183L648.67 77.802V80.6401H636.09L635.22 53.9451H633.05L632.18 80.6401H619.6V77.802L626.32 74.6183L625.24 51.2222C622.09 50.4263 620.36 48.2689 620.36 44.7501V31.6905C620.36 24.0769 622.31 19.0814 630.23 17.9503C628.49 16.5888 627.52 14.2011 627.52 11.4782C627.52 10.0015 626.76 9.77109 626.76 8.07451C626.76 3.07901 629.47 0.010498 633.92 0.010498C636.31 0.010498 638.04 1.03683 639.02 2.51348C640.76 3.53981 641.51 5.4668 641.51 8.07451C641.51 9.78157 640.75 9.78157 640.75 11.4782C640.75 14.2011 639.77 16.5888 638.04 17.9503C645.96 19.0814 647.91 24.0873 647.91 31.6905V44.7501C647.91 48.049 646.17 50.4263 643.03 51.2222L641.95 74.6183Z" fill="white"/>
<path opacity="0.3" d="M695.129 29.6379V42.9278C695.129 48.1537 693.939 50.3111 692.639 51.4422L691.559 59.7366H689.499L688.959 75.4143L694.709 78.4828V80.6402H683.759L682.779 59.967H680.939L680.179 80.6402H669.119V78.4828L674.979 75.4143L674.439 59.7366H672.269L671.289 51.4422C669.879 50.3111 668.689 48.1432 668.689 42.9278V29.6379C668.689 24.7576 670.859 20.8932 676.059 19.3013C674.979 18.7358 674.429 17.3743 674.429 15.5521C674.429 13.2795 675.079 11.5724 675.619 8.96472C676.699 3.96922 677.899 1.1311 681.909 1.1311C685.709 1.1311 687.119 3.96922 688.199 8.96472C688.629 10.8917 690.479 14.0754 690.479 15.5521C690.479 17.3743 689.399 18.7358 687.879 19.4165C693.089 21.0084 695.149 24.7576 695.149 29.6379H695.129Z" fill="white"/>
<path opacity="0.3" d="M737.481 74.6183L744.201 77.802V80.6401H731.621L730.751 53.9451H728.581L727.711 80.6401H715.131V77.802L721.851 74.6183L720.771 51.2222C717.621 50.4263 715.891 48.2689 715.891 44.7501V31.6905C715.891 24.0769 717.841 19.0814 725.761 17.9503C724.021 16.5888 723.051 14.2011 723.051 11.4782C723.051 10.0015 722.291 9.77109 722.291 8.07451C722.291 3.07901 725.001 0.010498 729.451 0.010498C731.841 0.010498 733.571 1.03683 734.551 2.51348C736.291 3.53981 737.041 5.4668 737.041 8.07451C737.041 9.78157 736.281 9.78157 736.281 11.4782C736.281 14.2011 735.301 16.5888 733.571 17.9503C741.491 19.0814 743.441 24.0873 743.441 31.6905V44.7501C743.441 48.049 741.701 50.4263 738.561 51.2222L737.481 74.6183Z" fill="white"/>
<path opacity="0.3" d="M790.661 29.6379V42.9278C790.661 48.1537 789.471 50.3111 788.171 51.4422L787.091 59.7366H785.031L784.491 75.4143L790.241 78.4828V80.6402H779.291L778.311 59.967H776.471L775.711 80.6402H764.651V78.4828L770.511 75.4143L769.971 59.7366H767.801L766.821 51.4422C765.411 50.3111 764.221 48.1432 764.221 42.9278V29.6379C764.221 24.7576 766.391 20.8932 771.591 19.3013C770.511 18.7358 769.961 17.3743 769.961 15.5521C769.961 13.2795 770.611 11.5724 771.151 8.96472C772.231 3.96922 773.431 1.1311 777.441 1.1311C781.241 1.1311 782.651 3.96922 783.731 8.96472C784.161 10.8917 786.011 14.0754 786.011 15.5521C786.011 17.3743 784.931 18.7358 783.411 19.4165C788.621 21.0084 790.681 24.7576 790.681 29.6379H790.661Z" fill="white"/>
<path opacity="0.3" d="M833 74.6183L839.72 77.802V80.6401H827.14L826.27 53.9451H824.1L823.23 80.6401H810.65V77.802L817.37 74.6183L816.29 51.2222C813.14 50.4263 811.41 48.2689 811.41 44.7501V31.6905C811.41 24.0769 813.36 19.0814 821.28 17.9503C819.54 16.5888 818.57 14.2011 818.57 11.4782C818.57 10.0015 817.81 9.77109 817.81 8.07451C817.81 3.07901 820.52 0.010498 824.97 0.010498C827.36 0.010498 829.09 1.03683 830.07 2.51348C831.81 3.53981 832.56 5.4668 832.56 8.07451C832.56 9.78157 831.8 9.78157 831.8 11.4782C831.8 14.2011 830.82 16.5888 829.09 17.9503C837.01 19.0814 838.96 24.0873 838.96 31.6905V44.7501C838.96 48.049 837.22 50.4263 834.08 51.2222L833 74.6183Z" fill="white"/>
<path opacity="0.3" d="M886.19 29.6379V42.9278C886.19 48.1537 885 50.3111 883.7 51.4422L882.62 59.7366H880.56L880.02 75.4143L885.77 78.4828V80.6402H874.82L873.84 59.967H872L871.24 80.6402H860.18V78.4828L866.04 75.4143L865.5 59.7366H863.33L862.35 51.4422C860.94 50.3111 859.75 48.1432 859.75 42.9278V29.6379C859.75 24.7576 861.92 20.8932 867.12 19.3013C866.04 18.7358 865.49 17.3743 865.49 15.5521C865.49 13.2795 866.14 11.5724 866.68 8.96472C867.76 3.96922 868.96 1.1311 872.97 1.1311C876.77 1.1311 878.18 3.96922 879.26 8.96472C879.69 10.8917 881.54 14.0754 881.54 15.5521C881.54 17.3743 880.46 18.7358 878.94 19.4165C884.15 21.0084 886.21 24.7576 886.21 29.6379H886.19Z" fill="white"/>
<path opacity="0.3" d="M928.53 74.6183L935.25 77.802V80.6401H922.67L921.8 53.9451H919.63L918.76 80.6401H906.18V77.802L912.9 74.6183L911.82 51.2222C908.67 50.4263 906.94 48.2689 906.94 44.7501V31.6905C906.94 24.0769 908.89 19.0814 916.81 17.9503C915.07 16.5888 914.1 14.2011 914.1 11.4782C914.1 10.0015 913.34 9.77109 913.34 8.07451C913.34 3.07901 916.05 0.010498 920.5 0.010498C922.89 0.010498 924.62 1.03683 925.6 2.51348C927.34 3.53981 928.09 5.4668 928.09 8.07451C928.09 9.78157 927.33 9.78157 927.33 11.4782C927.33 14.2011 926.35 16.5888 924.62 17.9503C932.54 19.0814 934.49 24.0873 934.49 31.6905V44.7501C934.49 48.049 932.75 50.4263 929.61 51.2222L928.53 74.6183Z" fill="white"/>
<path d="M156.48 0V53.9451H155.44L154.57 80.6401H141.99V77.802L148.71 74.6183L147.63 51.2222C144.49 50.4263 142.75 48.2689 142.75 44.75V31.6905C142.75 24.0873 144.7 19.0813 152.61 17.9503C150.88 16.5888 149.9 14.201 149.9 11.4781C149.9 10.0015 149.14 9.77107 149.14 8.06401C149.14 3.06851 151.85 0 156.3 0C156.36 0 156.42 0 156.48 0Z" fill="white"/>
<path opacity="0.3" d="M171.05 77.802V80.6401H158.47L157.6 53.9451H156.48V0C158.77 0.0523637 160.45 1.05775 161.4 2.49251C163.13 3.51884 163.9 5.44583 163.9 8.05354C163.9 9.7606 163.14 9.7606 163.14 11.4677C163.14 14.1906 162.16 16.5784 160.43 17.9398C168.35 19.0709 170.3 24.0768 170.3 31.68V44.7396C170.3 48.0385 168.57 50.4158 165.42 51.2117L164.34 74.6078L171.06 77.7915L171.05 77.802Z" fill="white"/>
</svg>
